<svg width="600" height="600" viewBox="0 0 600 600" fill="none" xmlns="http://www.w3.org/2000/svg">
<rect width="600" height="600" fill="#FF9500"/>
<g opacity="0.25">
<path fill-rule="evenodd" clip-rule="evenodd" d="M212.615 147.895C213.512 143.205 213.026 138.704 209.599 135.906C202.02 129.717 195.41 132.712 193.052 134.984C197.843 126.73 212.441 124.016 219.186 133.647C220.759 135.892 221.78 138.132 222.366 140.328C230.735 134.937 243.177 139.605 248.616 142.803C243.715 142.035 233.67 142.224 226.792 147.595C230.885 146.276 235.603 146.192 240.835 148.425C251.648 153.042 252 167.886 244.91 174.274C246.647 171.499 248.217 164.413 240.599 158.272C237.549 155.813 233.667 155.885 229.759 157.216C231.778 157.908 233.793 159.063 235.74 160.821C242.996 167.375 242.003 177.216 234.734 183.1C236.85 181.387 239.895 172.6 233.912 166.809C230.081 163.101 223.533 163.792 217.843 165.533C217.123 163.845 215.951 162.096 214.024 160.395C211.515 158.18 208.312 157.198 205.167 156.885C205.833 150.973 205.236 143.8 200.059 141.874C193.089 139.281 189.068 143.058 187.929 145.271C189.35 138.157 199.187 132.624 206.402 137.897C210.31 140.753 212.07 144.318 212.615 147.895Z" fill="white"/>
<path d="M174.547 174.693C167.083 186.285 140.506 240.173 147.708 245.466C154.91 250.76 201.005 211.041 209.414 200.319C217.823 189.597 221.131 170.723 210.499 162.909C199.868 155.095 182.14 162.9 174.547 174.693Z" fill="white"/>
<path fill-rule="evenodd" clip-rule="evenodd" d="M468.816 475.074C464.47 473.096 459.982 472.506 456.454 475.176C448.652 481.081 450.003 488.211 451.655 491.039C444.763 484.436 445.571 469.61 456.521 465.327C459.074 464.328 461.491 463.864 463.764 463.813C460.5 454.408 467.971 443.419 472.361 438.889C470.46 443.469 468.273 453.276 471.869 461.226C471.554 456.939 472.585 452.333 475.99 447.776C483.027 438.357 497.536 441.517 502.07 449.914C499.783 447.572 493.268 444.374 485.503 450.328C482.393 452.712 481.548 456.502 481.919 460.613C483.068 458.815 484.666 457.129 486.834 455.652C494.915 450.147 504.243 453.434 508.246 461.885C507.081 459.425 499.26 454.393 492.221 458.841C487.713 461.689 486.841 468.215 487.19 474.155C485.38 474.456 483.403 475.183 481.296 476.654C478.551 478.569 476.842 481.451 475.796 484.433C470.208 482.391 463.096 481.279 460.004 485.855C455.839 492.017 458.561 496.815 460.442 498.444C453.865 495.385 450.808 484.52 457.635 478.753C461.333 475.629 465.212 474.76 468.816 475.074Z" fill="white"/>
<path d="M485.876 518.389C495.381 528.378 541.477 566.919 548.32 561.169C555.163 555.419 527.441 501.254 519.005 490.553C510.57 479.852 493.009 472.185 482.908 480.673C472.806 489.16 476.208 508.229 485.876 518.389Z" fill="white"/>
<path d="M71.6461 74.9477L71.3773 74.867L74.2153 63.4882L75.3548 63.7569C79.1496 64.6008 87.3142 66.4337 85.8361 72.4268C84.2505 78.7317 74.8227 75.899 71.6461 74.9477ZM66.7387 93.4269L67.201 93.5613C71.114 94.7277 82.2295 98.0333 83.7345 91.7714C85.2878 85.746 75.2957 83.3972 70.8237 82.349C70.3346 82.2308 69.91 82.134 69.5767 82.048L66.7387 93.4269Z" fill="white"/>
<path fill-rule="evenodd" clip-rule="evenodd" d="M75.5 128.875C81.8527 128.875 88.1432 127.624 94.0123 125.193C99.8814 122.762 105.214 119.198 109.706 114.706C114.198 110.214 117.762 104.881 120.193 99.0123C122.624 93.1432 123.875 86.8527 123.875 80.5C123.875 74.1473 122.624 67.8568 120.193 61.9877C117.762 56.1186 114.198 50.7857 109.706 46.2937C105.214 41.8017 99.8814 38.2384 94.0123 35.8073C88.1432 33.3763 81.8527 32.125 75.5 32.125C62.6702 32.125 50.3658 37.2216 41.2937 46.2937C32.2216 55.3658 27.125 67.6702 27.125 80.5C27.125 93.3298 32.2216 105.634 41.2937 114.706C50.3658 123.778 62.6702 128.875 75.5 128.875ZM96.3174 73.061C97.4246 66.0628 92.5925 62.4185 85.8899 59.9568L88.2441 50.443L82.9229 49.1208L80.6278 58.398L79.5904 58.1292C78.5369 57.8605 77.4995 57.5917 76.4352 57.3552L78.7358 48.0834L73.2694 46.7289L70.9689 56.0007L60.1221 53.3132L58.5526 59.6557C58.5526 59.6557 62.5785 60.5319 62.428 60.6179C64.578 61.1984 64.9489 62.7249 64.8306 63.8912L62.0947 74.6789L58.343 89.8525C58.0474 90.5728 57.3217 91.6048 55.849 91.25C55.9135 91.3145 51.936 90.2234 51.936 90.2234L49.3238 96.9153L59.848 99.7855L57.5045 109.251L62.7881 110.562L65.137 101.092C65.9862 101.339 66.8462 101.538 67.6794 101.731C68.3029 101.876 68.9102 102.016 69.4854 102.172L67.1365 111.637L72.4309 112.949L74.7798 103.483C83.8904 105.22 90.7704 104.408 93.8449 95.4371C96.3174 88.2884 94.0061 84.2034 89.2062 81.5212C92.8075 80.6451 95.4789 78.1511 96.3174 73.061Z" fill="white"/>
<path d="M336.46 347.066L336.21 346.937L341.086 336.272L342.157 336.745C345.733 338.27 353.423 341.568 350.872 347.189C348.157 353.096 339.408 348.584 336.46 347.066ZM328.248 364.333L328.678 364.549C332.311 366.413 342.632 371.701 345.259 365.821C347.891 360.182 338.499 356.041 334.295 354.191C333.836 353.985 333.436 353.812 333.124 353.667L328.248 364.333Z" fill="white"/>
<path fill-rule="evenodd" clip-rule="evenodd" d="M330.363 400.786C336.608 401.951 343.021 401.874 349.237 400.56C355.452 399.246 361.347 396.72 366.587 393.128C371.826 389.535 376.307 384.946 379.772 379.622C383.238 374.298 385.621 368.344 386.786 362.099C387.95 355.854 387.874 349.44 386.56 343.225C385.246 337.01 382.72 331.114 379.128 325.875C375.535 320.635 370.946 316.155 365.622 312.689C360.298 309.223 354.344 306.84 348.099 305.676C335.486 303.324 322.456 306.078 311.875 313.334C301.293 320.589 294.027 331.75 291.675 344.363C289.324 356.975 292.078 370.006 299.334 380.587C306.589 391.168 317.75 398.434 330.363 400.786ZM361.059 349.734C363.43 343.057 359.348 338.589 353.21 334.94L357.269 326.019L352.28 323.744L348.323 332.443L347.353 331.989C346.366 331.532 345.396 331.077 344.393 330.65L348.354 321.957L343.229 319.623L339.267 328.316L329.097 323.686L326.392 329.633C326.392 329.633 330.189 331.232 330.025 331.289C332.032 332.254 332.117 333.823 331.787 334.948L327.12 345.051L320.65 359.28C320.227 359.934 319.325 360.815 317.942 360.196C317.994 360.272 314.284 358.47 314.284 358.47L310.489 364.569L320.309 369.32L316.27 378.196L321.223 380.453L325.269 371.574C326.058 371.972 326.867 372.326 327.651 372.669C328.237 372.926 328.808 373.174 329.345 373.433L325.301 382.307L330.265 384.567L334.309 375.693C342.947 379.07 349.86 379.533 354.527 371.278C358.268 364.703 356.744 360.264 352.517 356.747C356.218 356.546 359.302 354.584 361.059 349.734Z" fill="white"/>
<path fill-rule="evenodd" clip-rule="evenodd" d="M313.074 44.0018C303.802 42.5279 295.09 48.8498 293.616 58.1222L290.28 79.1087C288.806 88.3811 295.128 97.0928 304.401 98.5667L421.925 117.248C431.198 118.722 439.909 112.4 441.383 103.128L444.719 82.1415C446.193 72.8691 439.871 64.1574 430.599 62.6835L313.074 44.0018ZM309.217 81.8033L312.42 61.6563L315.666 61.6273L314.367 69.798C314.957 69.3371 315.602 69.0093 316.302 68.8146C317.003 68.6199 317.726 68.5819 318.472 68.7005C319.666 68.8903 320.687 69.3872 321.534 70.1914C322.404 70.9798 323.041 71.961 323.448 73.1349C323.854 74.3088 323.949 75.5766 323.733 76.9384C323.519 78.2816 323.036 79.4575 322.282 80.4662C321.551 81.4592 320.659 82.1972 319.607 82.6802C318.554 83.1633 317.431 83.3099 316.237 83.1201C315.435 82.9926 314.722 82.7262 314.098 82.321C313.477 81.8971 312.962 81.3467 312.553 80.6697L312.295 82.2926L309.217 81.8033ZM315.896 80.3977C316.679 80.5222 317.4 80.4361 318.06 80.1392C318.719 79.8424 319.271 79.3755 319.717 78.7387C320.165 78.0832 320.459 77.317 320.599 76.4403C320.744 75.5262 320.703 74.6973 320.477 73.9537C320.251 73.2101 319.871 72.595 319.336 72.1084C318.802 71.6217 318.142 71.3161 317.359 71.1916C316.743 71.0937 316.144 71.1324 315.562 71.3076C314.982 71.4641 314.461 71.7351 313.998 72.1205L312.984 78.5004C313.286 79.0074 313.688 79.4252 314.191 79.7537C314.693 80.0822 315.261 80.2969 315.896 80.3977ZM332.555 85.8C331.193 85.5835 330.012 85.0706 329.012 84.2614C328.015 83.4336 327.278 82.4174 326.8 81.213C326.341 80.0116 326.219 78.7299 326.436 77.3681C326.655 75.9877 327.149 74.8039 327.918 73.8169C328.706 72.8327 329.673 72.1066 330.818 71.6384C331.985 71.1545 333.222 71.0163 334.527 71.2239C335.889 71.4404 337.042 71.9488 337.986 72.7491C338.948 73.5524 339.642 74.5425 340.067 75.7193C340.511 76.8991 340.621 78.1886 340.399 79.5877L340.279 80.3432L329.422 78.6174C329.393 79.3971 329.528 80.1165 329.825 80.7757C330.143 81.4193 330.583 81.9578 331.146 82.3915C331.727 82.8281 332.39 83.1057 333.136 83.2243C333.864 83.34 334.558 83.3068 335.218 83.1248C335.896 82.9458 336.481 82.6371 336.971 82.1987L338.772 84.4071C337.842 85.0817 336.863 85.5285 335.834 85.7474C334.804 85.9663 333.711 85.9838 332.555 85.8ZM329.766 76.6351L337.573 77.8761C337.57 77.1681 337.423 76.5326 337.13 75.9696C336.858 75.3909 336.465 74.9172 335.95 74.5484C335.456 74.164 334.864 73.9169 334.174 73.8072C333.521 73.7034 332.902 73.7484 332.317 73.9422C331.75 74.139 331.248 74.4704 330.81 74.9364C330.376 75.3837 330.027 75.95 329.766 76.6351ZM345.735 86.9196C346.753 87.7318 347.953 88.2476 349.333 88.467C350.713 88.6865 352.001 88.5852 353.197 88.1632C354.411 87.7442 355.414 87.0907 356.205 86.2028L354.01 84.1325C353.53 84.7447 352.912 85.2012 352.157 85.5019C351.423 85.7869 350.627 85.8612 349.769 85.7248C348.967 85.5973 348.28 85.2872 347.708 84.7947C347.154 84.3051 346.744 83.6948 346.478 82.9639C346.233 82.2174 346.179 81.415 346.316 80.5569C346.455 79.6802 346.755 78.9342 347.217 78.3189C347.681 77.6851 348.261 77.2226 348.958 76.9317C349.654 76.6408 350.403 76.5591 351.206 76.6866C352.064 76.823 352.796 77.1498 353.402 77.6669C354.03 78.1684 354.476 78.7939 354.739 79.5434L357.473 78.228C356.996 77.1384 356.245 76.2062 355.221 75.4314C354.215 74.6595 353.022 74.1638 351.641 73.9444C350.261 73.7249 348.961 73.8434 347.741 74.2997C346.539 74.759 345.525 75.4871 344.697 76.4839C343.887 77.4837 343.373 78.6739 343.154 80.0543C342.937 81.4161 343.059 82.6977 343.518 83.8992C343.999 85.0849 344.738 86.0917 345.735 86.9196ZM359.664 89.8223L362.853 69.7592L366.104 69.7022L364.721 78.4046C366.049 77.0283 367.608 76.4824 369.399 76.7671C370.369 76.9213 371.184 77.2708 371.843 77.8155C372.505 78.3415 372.981 79.0196 373.27 79.8497C373.58 80.6641 373.657 81.5656 373.5 82.5543L372.032 91.7884L368.842 91.2813L370.167 82.9426C370.331 81.9166 370.18 81.0607 369.715 80.3748C369.253 79.6702 368.556 79.2438 367.623 79.0955C367.026 79.0006 366.455 79.0437 365.91 79.2248C365.365 79.4059 364.875 79.7202 364.44 80.1675L362.826 90.325L359.664 89.8223ZM378.248 92.3175C379.418 93.0198 380.73 93.4867 382.186 93.7179C383.603 93.9433 384.892 93.8995 386.051 93.5865C387.231 93.2577 388.207 92.7147 388.978 91.9574C389.751 91.1815 390.226 90.2432 390.401 89.1426C390.576 88.0419 390.326 87.0268 389.651 86.0971C388.998 85.1518 388.041 84.4354 386.78 83.948C387.931 83.8058 388.906 83.3871 389.705 82.6917C390.525 81.9806 391.019 81.1027 391.185 80.058C391.354 78.9947 391.215 78.0067 390.767 77.094C390.34 76.1655 389.661 75.3881 388.728 74.7616C387.794 74.1351 386.675 73.7181 385.369 73.5105C384.026 73.297 382.696 73.3629 381.378 73.7081C380.083 74.0377 378.907 74.635 377.852 75.5L379.616 77.76C380.535 77.0264 381.386 76.5495 382.167 76.3294C382.969 76.0936 383.865 76.0542 384.854 76.2114C385.562 76.3241 386.174 76.5648 386.69 76.9336C387.208 77.2837 387.587 77.7265 387.827 78.2619C388.089 78.7817 388.173 79.3307 388.081 79.909C387.939 80.8044 387.537 81.4673 386.876 81.8977C386.233 82.3311 385.436 82.4722 384.485 82.3209L382.33 81.9784L381.921 84.5528L384.328 84.9353C385.018 85.045 385.603 85.272 386.084 85.6162C386.568 85.9417 386.923 86.3521 387.151 86.8472C387.378 87.3424 387.446 87.8791 387.354 88.4574C387.25 89.1103 386.982 89.6511 386.551 90.0798C386.119 90.5085 385.555 90.8108 384.857 90.9869C384.182 91.1472 383.415 91.1592 382.557 91.0228C381.475 90.8508 380.567 90.544 379.834 90.1023C379.104 89.642 378.412 88.9391 377.759 87.9938L375.405 89.6278C376.134 90.6999 377.081 91.5965 378.248 92.3175ZM392.717 95.0764L393.068 92.8658L402.433 85.7478C402.998 85.3212 403.444 84.9235 403.771 84.5546C404.116 84.1887 404.374 83.8281 404.545 83.4728C404.738 83.1018 404.867 82.7111 404.932 82.3007C405.063 81.4799 404.835 80.7456 404.25 80.0979C403.664 79.4501 402.858 79.0447 401.832 78.8816C400.937 78.7393 400.069 78.7831 399.229 79.013C398.389 79.2429 397.433 79.7221 396.361 80.4506L394.96 78.0761C396.199 77.2594 397.426 76.699 398.641 76.3949C399.859 76.0721 401.084 76.0085 402.315 76.2042C403.602 76.4089 404.694 76.8214 405.59 77.442C406.489 78.0439 407.145 78.7889 407.558 79.6771C407.972 80.5652 408.094 81.541 407.925 82.6043C407.824 83.2385 407.645 83.8222 407.388 84.3551C407.132 84.8881 406.752 85.4111 406.25 85.9241C405.766 86.4401 405.11 87.0149 404.283 87.6484L397.02 93.0924L406.398 94.5545L405.98 97.1848L392.717 95.0764ZM411.388 83.6711L409.159 97.6901L411.874 98.1216L413.657 86.9008C413.904 86.6722 414.147 86.5291 414.385 86.4714C414.624 86.4137 414.855 86.4027 415.079 86.4383C415.601 86.5213 415.971 86.7809 416.189 87.2172C416.428 87.6377 416.494 88.1838 416.388 88.8553L414.84 98.5931L417.526 99.0201L419.185 88.5828L419.243 88.219C419.261 88.1071 419.26 87.9922 419.24 87.8743C419.49 87.6271 419.736 87.4654 419.977 87.389C420.219 87.3127 420.47 87.2953 420.731 87.3368C421.254 87.4198 421.624 87.6794 421.841 88.1157C422.062 88.5332 422.119 89.0778 422.012 89.7494L420.464 99.4871L423.15 99.9141L424.832 89.3369C425.004 88.2549 424.845 87.3307 424.354 86.5643C423.883 85.8008 423.19 85.3464 422.276 85.2011C421.66 85.1032 421.078 85.1542 420.53 85.3539C420.004 85.538 419.508 85.8895 419.043 86.4085C418.868 85.826 418.56 85.3563 418.119 84.9994C417.7 84.6268 417.192 84.393 416.596 84.2981C416.092 84.2181 415.617 84.2573 415.171 84.416C414.744 84.5775 414.324 84.8742 413.911 85.3058L414.102 84.1026L411.388 83.6711Z" fill="white"/>
<path fill-rule="evenodd" clip-rule="evenodd" d="M39.8952 352.569C30.6708 354.318 24.6108 363.214 26.36 372.438L30.3189 393.316C32.0681 402.541 40.9639 408.601 50.1884 406.851L167.105 384.682C176.329 382.932 182.389 374.036 180.64 364.812L176.681 343.934C174.932 334.71 166.036 328.65 156.812 330.399L39.8952 352.569ZM49.051 389.447L45.2505 369.404L48.2958 368.279L49.8371 376.407C50.2361 375.774 50.7323 375.247 51.3255 374.827C51.9187 374.407 52.5865 374.127 53.3288 373.986C54.5166 373.761 55.6452 373.883 56.7149 374.353C57.7996 374.801 58.7316 375.509 59.511 376.476C60.2904 377.443 60.8086 378.604 61.0654 379.959C61.3188 381.295 61.2617 382.565 60.894 383.77C60.5413 384.951 59.9516 385.948 59.1248 386.758C58.298 387.569 57.2907 388.086 56.103 388.312C55.305 388.463 54.5438 388.453 53.8194 388.283C53.0914 388.094 52.4206 387.751 51.807 387.252L52.1131 388.866L49.051 389.447ZM54.8605 385.865C55.6399 385.717 56.2896 385.392 56.8096 384.89C57.3295 384.388 57.6914 383.762 57.8953 383.012C58.0956 382.243 58.1131 381.423 57.9477 380.55C57.7752 379.641 57.4569 378.875 56.9926 378.251C56.5284 377.628 55.9624 377.178 55.2946 376.901C54.6269 376.624 53.9033 376.559 53.1238 376.707C52.5114 376.823 51.9607 377.062 51.4718 377.424C50.9794 377.767 50.5805 378.198 50.2752 378.718L51.4788 385.065C51.9344 385.44 52.4541 385.697 53.0381 385.836C53.622 385.975 54.2295 385.985 54.8605 385.865ZM72.3649 385.315C71.0102 385.571 69.7255 385.488 68.5109 385.065C67.2928 384.623 66.2552 383.916 65.398 382.944C64.5594 381.969 64.0117 380.804 63.7548 379.449C63.4944 378.076 63.5591 376.795 63.9488 375.606C64.3571 374.413 65.0211 373.403 65.9407 372.575C66.8754 371.725 67.9922 371.177 69.2913 370.93C70.646 370.673 71.9029 370.762 73.0618 371.196C74.2392 371.626 75.227 372.323 76.0249 373.287C76.8414 374.247 77.3817 375.423 77.6456 376.815L77.7881 377.567L66.9872 379.615C67.2243 380.358 67.594 380.99 68.0964 381.51C68.6137 382.008 69.2103 382.366 69.8861 382.584C70.5804 382.798 71.2987 382.835 72.041 382.694C72.7648 382.557 73.4065 382.291 73.9661 381.896C74.5443 381.498 74.9901 381.01 75.3033 380.432L77.7448 381.901C77.0981 382.85 76.3274 383.602 75.4328 384.156C74.5381 384.71 73.5155 385.096 72.3649 385.315ZM66.6403 377.633L74.4069 376.16C74.1654 375.495 73.8115 374.947 73.3453 374.516C72.8942 374.063 72.3638 373.751 71.7543 373.578C71.1598 373.383 70.5192 373.351 69.8326 373.481C69.1831 373.604 68.6156 373.856 68.1302 374.236C67.6633 374.613 67.3029 375.095 67.0488 375.681C66.7912 376.249 66.655 376.9 66.6403 377.633ZM85.1467 381.91C86.3799 382.33 87.6831 382.41 89.0564 382.149C90.4297 381.889 91.6075 381.358 92.5899 380.557C93.5907 379.752 94.3134 378.797 94.7579 377.694L91.9915 376.489C91.747 377.227 91.3202 377.865 90.7109 378.404C90.1167 378.92 89.3928 379.26 88.5391 379.421C87.7411 379.573 86.9897 379.513 86.2848 379.243C85.5985 378.97 85.0064 378.534 84.5085 377.936C84.0257 377.317 83.7034 376.58 83.5415 375.726C83.3761 374.854 83.4064 374.05 83.6323 373.315C83.8547 372.562 84.2444 371.93 84.8015 371.421C85.3586 370.912 86.0361 370.581 86.8341 370.43C87.6878 370.268 88.4874 370.328 89.2329 370.61C89.9935 370.869 90.6244 371.307 91.1258 371.923L93.2535 369.761C92.436 368.897 91.4142 368.273 90.1881 367.891C88.9806 367.504 87.6901 367.441 86.3168 367.702C84.9435 367.962 83.76 368.514 82.7661 369.356C81.7908 370.194 81.0822 371.223 80.6403 372.441C80.217 373.655 80.1355 374.949 80.3959 376.323C80.6528 377.677 81.2005 378.842 82.0391 379.818C82.8928 380.771 83.9286 381.468 85.1467 381.91ZM99.2369 379.931L95.4521 359.971L98.4922 358.818L100.134 367.475C100.918 365.731 102.201 364.69 103.983 364.352C104.948 364.169 105.833 364.222 106.637 364.512C107.438 364.783 108.115 365.26 108.668 365.944C109.235 366.605 109.613 367.428 109.799 368.411L111.541 377.598L108.368 378.199L106.794 369.904C106.601 368.883 106.169 368.129 105.5 367.64C104.827 367.133 104.027 366.968 103.099 367.144C102.505 367.257 101.982 367.49 101.53 367.845C101.079 368.2 100.724 368.661 100.466 369.229L102.382 379.334L99.2369 379.931ZM117.57 375.993C118.908 376.258 120.301 376.254 121.749 375.979C123.159 375.712 124.357 375.235 125.342 374.548C126.342 373.839 127.076 372.998 127.545 372.025C128.011 371.033 128.14 369.99 127.932 368.895C127.725 367.8 127.146 366.929 126.197 366.282C125.262 365.614 124.119 365.263 122.768 365.231C123.803 364.708 124.579 363.984 125.095 363.059C125.627 362.113 125.795 361.12 125.598 360.08C125.397 359.023 124.932 358.14 124.201 357.432C123.486 356.703 122.584 356.201 121.494 355.927C120.403 355.653 119.209 355.64 117.91 355.886C116.574 356.139 115.344 356.651 114.221 357.422C113.114 358.17 112.209 359.13 111.509 360.301L113.933 361.831C114.55 360.829 115.189 360.093 115.85 359.622C116.525 359.128 117.355 358.788 118.338 358.602C119.044 358.468 119.701 358.488 120.31 358.661C120.916 358.815 121.423 359.103 121.83 359.526C122.252 359.927 122.517 360.415 122.627 360.99C122.796 361.881 122.642 362.64 122.165 363.269C121.707 363.894 121.004 364.297 120.058 364.476L117.914 364.883L118.4 367.444L120.794 366.99C121.481 366.859 122.108 366.875 122.677 367.036C123.243 367.179 123.716 367.445 124.097 367.834C124.479 368.223 124.724 368.705 124.833 369.281C124.956 369.93 124.887 370.53 124.626 371.079C124.365 371.628 123.936 372.104 123.339 372.505C122.758 372.885 122.04 373.155 121.186 373.317C120.11 373.521 119.152 373.54 118.313 373.372C117.47 373.186 116.582 372.758 115.647 372.089L113.985 374.423C115.033 375.186 116.228 375.709 117.57 375.993ZM132.119 373.696L131.702 371.496L138.108 361.63C138.495 361.038 138.78 360.513 138.962 360.055C139.163 359.594 139.284 359.167 139.325 358.775C139.381 358.361 139.371 357.949 139.293 357.541C139.138 356.725 138.676 356.111 137.906 355.699C137.136 355.287 136.24 355.179 135.219 355.372C134.329 355.541 133.527 355.876 132.814 356.376C132.102 356.876 131.364 357.651 130.602 358.699L128.48 356.938C129.37 355.751 130.335 354.808 131.376 354.111C132.413 353.395 133.543 352.921 134.768 352.689C136.049 352.446 137.216 352.465 138.269 352.746C139.318 353.009 140.188 353.488 140.877 354.184C141.567 354.88 142.012 355.757 142.212 356.815C142.332 357.446 142.361 358.055 142.3 358.644C142.238 359.232 142.058 359.853 141.759 360.505C141.478 361.155 141.055 361.917 140.491 362.793L135.497 370.373L144.817 368.577L145.314 371.193L132.119 373.696ZM145.832 356.647L148.476 370.594L151.176 370.082L149.06 358.919C149.215 358.62 149.395 358.404 149.6 358.269C149.805 358.134 150.019 358.045 150.241 358.003C150.761 357.904 151.197 358.023 151.549 358.36C151.917 358.675 152.164 359.167 152.29 359.835L154.127 369.522L156.8 369.015L154.831 358.632L154.762 358.27C154.741 358.159 154.701 358.051 154.643 357.947C154.794 357.63 154.971 357.394 155.172 357.241C155.374 357.087 155.605 356.986 155.865 356.937C156.384 356.838 156.82 356.957 157.172 357.294C157.521 357.613 157.759 358.106 157.886 358.774L159.723 368.461L162.395 367.955L160.4 357.432C160.196 356.356 159.733 355.54 159.013 354.984C158.311 354.425 157.505 354.232 156.596 354.404C155.983 354.52 155.453 354.765 155.005 355.139C154.571 355.49 154.224 355.988 153.962 356.634C153.6 356.145 153.151 355.807 152.616 355.62C152.096 355.411 151.539 355.363 150.945 355.476C150.444 355.571 150.01 355.768 149.644 356.069C149.296 356.365 149.001 356.786 148.759 357.332L148.532 356.135L145.832 356.647Z" fill="white"/>
<path fill-rule="evenodd" clip-rule="evenodd" d="M523.37 260.493C548.771 253.937 564.049 228.031 557.493 202.63C550.937 177.229 525.031 161.951 499.63 168.507C474.228 175.063 458.951 200.969 465.507 226.37C472.063 251.772 497.969 267.049 523.37 260.493ZM479.217 212.629L484.081 231.472L487.311 230.638L485.456 223.451L488.848 222.576C490.122 222.247 491.163 221.72 491.971 220.994C492.793 220.246 493.35 219.365 493.644 218.352C493.937 217.338 493.94 216.275 493.653 215.162C493.352 213.996 492.828 213.04 492.08 212.295C491.333 211.55 490.421 211.058 489.345 210.819C488.282 210.557 487.114 210.591 485.839 210.92L479.217 212.629ZM487.648 220.043L484.768 220.786L483.149 214.514L486.03 213.77C487.178 213.474 488.132 213.534 488.89 213.951C489.648 214.368 490.148 215.043 490.389 215.976C490.634 216.927 490.526 217.769 490.064 218.5C489.602 219.232 488.797 219.746 487.648 220.043ZM499.269 225.284L499.818 227.411L512.577 224.117L511.924 221.587L502.913 223.941L507.318 216.201C507.815 215.307 508.18 214.533 508.413 213.879C508.665 213.221 508.802 212.602 508.824 212.022C508.847 211.442 508.779 210.847 508.622 210.237C508.358 209.214 507.866 208.384 507.146 207.746C506.427 207.109 505.545 206.695 504.5 206.505C503.451 206.298 502.308 206.353 501.069 206.673C499.885 206.979 498.808 207.515 497.838 208.282C496.864 209.031 495.979 210.016 495.184 211.236L497.374 212.824C498.053 211.749 498.726 210.943 499.392 210.408C500.058 209.872 500.821 209.494 501.683 209.271C502.67 209.016 503.553 209.066 504.334 209.42C505.114 209.773 505.606 210.345 505.81 211.135C505.912 211.529 505.949 211.931 505.92 212.341C505.905 212.728 505.814 213.153 505.647 213.617C505.497 214.077 505.252 214.609 504.91 215.214L499.269 225.284ZM516.569 205.917L520.723 222.015L523.954 221.181L519.799 205.084L525.641 203.576L524.932 200.83L510.019 204.679L510.727 207.425L516.569 205.917ZM527.748 200.103L532.611 218.947L535.842 218.113L533.896 210.576L536.669 209.86L542.356 216.432L545.829 215.536L539.647 208.604C540.653 207.904 541.363 207.022 541.777 205.958C542.192 204.894 542.239 203.742 541.92 202.504C541.628 201.374 541.104 200.456 540.348 199.751C539.605 199.024 538.698 198.55 537.626 198.329C536.568 198.085 535.411 198.126 534.155 198.45L527.748 200.103ZM536.137 207.241L533.229 207.992L531.68 201.989L534.587 201.238C535.592 200.979 536.463 201.051 537.198 201.454C537.948 201.835 538.44 202.483 538.676 203.399C538.908 204.296 538.791 205.102 538.324 205.815C537.871 206.507 537.142 206.982 536.137 207.241Z" fill="white"/>
<path fill-rule="evenodd" clip-rule="evenodd" d="M166.934 557.914C186.845 574.996 216.832 572.702 233.914 552.792C250.995 532.882 248.702 502.894 228.792 485.813C208.882 468.731 178.894 471.024 161.812 490.935C144.731 510.845 147.024 540.833 166.934 557.914ZM180.927 494.316L168.255 509.087L170.787 511.259L175.621 505.625L178.279 507.906C179.278 508.763 180.306 509.315 181.363 509.563C182.447 509.809 183.488 509.762 184.487 509.423C185.487 509.083 186.36 508.478 187.109 507.605C187.893 506.691 188.377 505.714 188.56 504.675C188.744 503.636 188.626 502.606 188.206 501.587C187.812 500.566 187.116 499.626 186.118 498.77L180.927 494.316ZM179.67 505.473L177.413 503.536L181.631 498.62L183.888 500.557C184.789 501.329 185.285 502.146 185.377 503.006C185.469 503.866 185.201 504.662 184.574 505.394C183.934 506.139 183.182 506.532 182.318 506.572C181.453 506.612 180.571 506.245 179.67 505.473ZM182.021 518.002L180.591 519.669L190.592 528.25L192.294 526.266L185.207 520.223L194.076 519.407C195.093 519.303 195.937 519.16 196.606 518.977C197.29 518.806 197.876 518.564 198.364 518.251C198.853 517.938 199.303 517.542 199.713 517.064C200.401 516.262 200.8 515.383 200.911 514.429C201.022 513.474 200.857 512.514 200.415 511.549C199.985 510.569 199.285 509.663 198.314 508.831C197.386 508.034 196.33 507.458 195.146 507.101C193.974 506.731 192.66 506.569 191.205 506.614L191.155 509.319C192.426 509.261 193.471 509.352 194.291 509.592C195.112 509.831 195.859 510.241 196.534 510.82C197.308 511.484 197.773 512.237 197.93 513.079C198.086 513.922 197.899 514.652 197.368 515.271C197.102 515.581 196.793 515.841 196.442 516.052C196.116 516.261 195.715 516.43 195.238 516.558C194.776 516.698 194.199 516.802 193.507 516.868L182.021 518.002ZM207.802 521.11L196.977 533.728L199.509 535.9L210.334 523.282L214.913 527.21L216.76 525.058L205.07 515.029L203.224 517.182L207.802 521.11ZM218.967 526.952L206.295 541.722L208.827 543.894L213.896 537.986L216.069 539.851L213.934 548.275L216.655 550.61L218.804 541.574C219.953 541.999 221.083 542.076 222.193 541.808C223.303 541.539 224.274 540.919 225.107 539.948C225.867 539.062 226.32 538.107 226.465 537.084C226.636 536.059 226.506 535.044 226.074 534.038C225.669 533.031 224.973 532.105 223.989 531.26L218.967 526.952ZM217.913 537.916L215.634 535.961L219.671 531.255L221.949 533.21C222.737 533.886 223.176 534.641 223.266 535.476C223.382 536.308 223.133 537.083 222.517 537.8C221.914 538.503 221.186 538.868 220.334 538.894C219.507 538.918 218.7 538.591 217.913 537.916Z" fill="white"/>
</g>
</svg>
