<svg width="144" height="231" viewBox="0 0 144 231" fill="none" xmlns="http://www.w3.org/2000/svg">
<g clip-path="url(#clip0_141_1895)">
<path d="M107.641 97.6628C96.2571 106.068 92.6942 120.341 92.3356 126.426L97.3143 130.416C97.655 128.827 100.569 122.757 109.501 111.183C118.432 99.6086 135.916 100.058 143.541 101.73C136.318 96.8719 119.025 89.2572 107.641 97.6628Z" fill="#469264"/>
<path d="M122.492 131.846C115.321 124.012 99.096 129.032 91.3153 132.384L88.3552 125.949C92.3501 122.473 111.225 109.794 125.346 124.19C134.283 133.301 132.213 146.044 122.279 153.136C125.172 151.071 129.831 139.863 122.492 131.846Z" fill="#23B25C"/>
<path d="M131.879 121.253C122.439 112.651 105.004 124.209 97.4672 131.062L91.5855 124.901C94.7695 119.387 111.277 97.5912 132.962 108.442C146.686 115.31 145.974 134.677 136.233 142.44C138.715 138.962 141.319 129.854 131.879 121.253Z" fill="#209B51"/>
<path d="M80.3535 96.6921C89.2306 100.62 86.5384 116.29 84.0826 123.634L90.1714 125.836C93.0303 121.93 103.128 103.765 88.9311 92.0105C79.9466 84.5713 66.6944 91.005 64.282 100.161C65.9404 97.3679 71.4765 92.764 80.3535 96.6921Z" fill="#209B51"/>
<path d="M93.2532 89.6675C102.639 98.3282 92.6323 116.697 86.4559 124.799L93.1028 130.126C98.321 126.477 118.607 108.146 105.922 87.4804C97.8934 74.402 78.66 76.7858 71.7682 87.162C75.0192 84.3886 83.8676 81.0068 93.2532 89.6675Z" fill="#23B25C"/>
<path d="M46.0823 137.767C35.7165 152.478 -1.87987 221.303 7.22346 228.598C16.3268 235.894 78.6035 186.611 90.154 173.087C101.704 159.562 107.047 135.13 93.6083 124.36C80.17 113.591 56.6265 122.803 46.0823 137.767Z" fill="#F76421"/>
<path d="M44.8953 207.057C22.9958 222.539 13.0101 225.721 9.94463 225.796C29.6207 213.088 58.7341 189.197 76.6833 166.8C90.8111 149.171 93.5304 136.796 94.1261 127.86C102.562 137.469 96.5869 158.546 89.4646 168.025C82.3423 177.505 72.2696 187.705 44.8953 207.057Z" fill="#D5622D"/>
<path d="M74.5862 126.877C71.2419 124.872 59.4534 130.768 61.3445 134.669C63.2356 138.569 82.5798 131.669 74.5862 126.877Z" fill="#FF7B3F"/>
<path d="M57.2342 134.906C55.1621 134.49 50.214 139.643 51.8886 141.291C53.5632 142.939 62.187 135.9 57.2342 134.906Z" fill="#FF7B3F"/>
</g>
<defs>
<clipPath id="clip0_141_1895">
<rect width="144" height="231" fill="white"/>
</clipPath>
</defs>
</svg>
