<svg width="758" height="231" viewBox="0 0 758 231" fill="none" xmlns="http://www.w3.org/2000/svg">
<g clip-path="url(#clip0_141_1894)">
<path d="M42.8275 137.489C43.0061 136.421 43.4495 135.533 44.1598 134.828C44.8688 134.123 45.7349 133.631 46.7585 133.351C47.6346 133.111 48.5524 133.096 49.5127 133.304C50.4718 133.512 51.3382 134.021 52.1096 134.83C55.307 138.194 58.3189 141.668 61.1456 145.251C63.9708 148.835 66.9413 152.438 70.0526 156.062C70.2579 149.646 70.3013 143.492 70.1792 137.596C70.0553 131.703 69.9945 125.89 69.9969 120.158C69.9868 118.12 70.3378 116.669 71.0439 115.808C71.7501 114.948 72.7964 114.326 74.1846 113.946C75.426 113.606 76.5432 113.675 77.5374 114.147C78.53 114.624 79.1873 115.444 79.5069 116.612C79.7671 117.562 79.9845 119.289 80.1604 121.791C80.3341 124.296 80.4644 127.204 80.5479 130.517C80.6304 133.832 80.6947 137.366 80.7427 141.122C80.7882 144.878 80.7963 148.488 80.763 151.951C80.73 155.416 80.6712 158.571 80.5878 161.42C80.5033 164.27 80.4238 166.412 80.3455 167.846C80.2208 169.687 79.8724 171.137 79.2988 172.196C78.7236 173.254 77.5989 174.015 75.9194 174.475C74.3856 174.895 72.9414 174.643 71.5899 173.718C70.2362 172.793 68.8934 171.612 67.5567 170.17C67.1038 169.666 66.36 168.81 65.3221 167.602C64.2856 166.396 63.0501 164.967 61.6172 163.317C60.1831 161.669 58.6272 159.857 56.9496 157.883C55.2706 155.91 53.5635 153.904 51.828 151.866C51.3725 154.504 50.888 157.109 50.3761 159.682C49.8632 162.257 49.3976 164.643 48.9787 166.836C48.5587 169.033 48.1921 170.921 47.8787 172.496C47.5634 174.075 47.3404 175.196 47.2096 175.859C46.793 177.78 46.2568 179.476 45.6009 180.952C44.9447 182.426 43.8122 183.385 42.2068 183.824C39.6493 184.524 37.2551 183.375 35.0203 180.374C34.1489 179.2 32.9561 177.426 31.4436 175.053C29.9294 172.682 28.2961 170.009 26.5388 167.033C24.7832 164.061 22.9912 160.959 21.1653 157.73C19.3388 154.501 17.6581 151.446 16.1246 148.569C14.5902 145.692 13.2854 143.146 12.2071 140.927C11.1291 138.71 10.4502 137.091 10.1701 136.068C9.83018 134.826 9.8959 133.71 10.371 132.715C10.8439 131.722 11.7389 131.044 13.0531 130.684C14.5135 130.285 15.7853 130.271 16.8691 130.642C17.9516 131.013 19.0088 132.078 20.0399 133.836C22.9603 138.768 25.8692 143.801 28.7671 148.935C31.6645 154.071 34.8363 159.345 38.2825 164.761C38.9279 160.815 39.5355 156.724 40.1028 152.485C40.6692 148.249 41.5777 143.248 42.8275 137.489L42.8275 137.489Z" fill="black"/>
<path d="M121.753 132.84C118.954 132.957 116.455 133.479 114.259 134.404C112.061 135.331 109.592 136.571 106.854 138.125L106.944 140.281C107.001 141.643 107.056 143.385 107.106 145.504C107.156 147.625 107.218 149.99 107.291 152.602C107.36 155.213 107.433 157.825 107.505 160.437C107.575 163.049 107.604 165.531 107.589 167.88C107.573 170.231 107.56 172.201 107.553 173.793C107.467 175.388 107.349 176.644 107.199 177.56C107.047 178.475 106.848 179.149 106.601 179.574C106.352 180.002 106.004 180.262 105.554 180.357C105.103 180.45 104.611 180.511 104.083 180.533C102.796 180.587 101.792 180.572 101.069 180.488C100.344 180.405 99.7472 180.165 99.2759 179.767C98.8048 179.372 98.4558 178.761 98.233 177.935C98.009 177.111 97.7908 175.984 97.5798 174.552C97.3674 173.122 97.1533 171.142 96.9332 168.61C96.7133 166.081 96.4992 163.249 96.2936 160.111C96.0854 156.976 95.8883 153.63 95.7022 150.074C95.5136 146.521 95.349 143.003 95.2032 139.523C95.0574 136.043 94.9201 132.354 94.7966 128.454C94.6704 124.558 94.5704 120.81 94.4966 117.212C94.4202 113.617 94.3609 110.398 94.3188 107.557C94.274 104.717 94.2998 102.613 94.3949 101.244C94.4634 99.2713 94.7519 97.5535 95.2593 96.0916C95.7667 94.6317 97.0027 93.8589 98.9713 93.7765C100.483 93.7131 101.735 94.1915 102.726 95.2116C103.715 96.2317 104.347 98.2118 104.624 101.157C104.885 103.799 105.173 107.482 105.485 112.205C105.797 116.93 106.113 122.24 106.436 128.138C107.459 127.261 108.713 126.434 110.197 125.65C111.68 124.869 113.243 124.197 114.887 123.634C116.531 123.074 118.215 122.606 119.945 122.228C121.671 121.855 123.291 121.633 124.805 121.57C128.437 121.418 131.631 122.138 134.389 123.726C137.145 125.317 139.385 127.667 141.107 130.778C142.251 132.777 143.14 134.995 143.774 137.431C144.405 139.868 144.893 142.443 145.233 145.158C145.36 146.365 145.485 147.554 145.611 148.723C145.734 149.893 145.843 151.14 145.938 152.461C146.031 153.784 146.112 155.278 146.182 156.941L146.429 162.842C146.524 165.112 146.574 167.213 146.58 169.145C146.584 171.077 146.446 172.752 146.165 174.165C145.884 175.58 145.379 176.7 144.657 177.525C143.934 178.352 142.892 178.793 141.529 178.85C139.56 178.933 138.079 178.369 137.082 177.16C136.082 175.952 135.548 174.478 135.475 172.737L135.375 170.354C135.311 168.841 135.219 167.083 135.098 165.079C134.974 163.076 134.853 161.054 134.73 159.013C134.605 156.971 134.478 155.311 134.35 154.027C134.224 152.819 134.074 151.519 133.903 150.122C133.731 148.729 133.519 147.315 133.271 145.885C133.02 144.458 132.716 143.087 132.359 141.775C132.001 140.465 131.573 139.289 131.074 138.247C129.91 135.794 128.52 134.261 126.903 133.647C125.286 133.033 123.569 132.764 121.753 132.84L121.753 132.84Z" fill="black"/>
<path d="M183.918 160.442C181.284 160.132 178.545 159.6 175.7 158.846C172.852 158.092 169.817 156.838 166.591 155.086C166.729 159.755 168.22 163.438 171.068 166.135C173.913 168.834 178.271 170.528 184.137 171.218C186.242 171.465 188.157 171.559 189.881 171.494C191.603 171.429 193.123 171.303 194.443 171.114C195.761 170.927 196.923 170.759 197.933 170.61C198.941 170.462 199.858 170.436 200.687 170.534C201.739 170.658 202.716 171.098 203.62 171.851C204.52 172.606 204.885 173.734 204.708 175.239C204.487 177.119 203.533 178.571 201.852 179.592C200.168 180.614 198.175 181.352 195.873 181.805C193.569 182.259 191.163 182.469 188.649 182.442C186.137 182.413 183.939 182.288 182.06 182.067C177.622 181.545 173.614 180.463 170.033 178.823C166.451 177.183 163.451 174.981 161.031 172.217C158.611 169.455 156.861 166.179 155.782 162.392C154.702 158.607 154.446 154.307 155.012 149.493C155.561 144.831 156.78 140.779 158.672 137.342C160.563 133.906 162.932 131.095 165.782 128.915C168.629 126.733 171.879 125.21 175.526 124.342C179.173 123.476 183.028 123.281 187.089 123.758C190.248 124.13 193.262 124.904 196.137 126.081C199.009 127.259 201.495 128.809 203.595 130.732C205.694 132.657 207.291 134.961 208.387 137.643C209.481 140.328 209.83 143.359 209.432 146.744C209.078 149.753 208.214 152.245 206.838 154.217C205.462 156.189 203.664 157.694 201.446 158.729C199.227 159.765 196.634 160.412 193.67 160.673C190.703 160.936 187.452 160.857 183.918 160.442L183.918 160.442ZM186.206 134.177C184.176 133.938 182.19 133.952 180.255 134.219C178.315 134.489 176.511 135.076 174.843 135.986C173.172 136.894 171.706 138.171 170.446 139.814C169.185 141.459 168.212 143.573 167.527 146.161C170.234 147.778 172.913 148.988 175.563 149.794C178.213 150.603 181.041 151.182 184.05 151.536C188.487 152.058 191.841 151.901 194.114 151.061C196.385 150.224 197.689 148.377 198.026 145.517C198.335 142.886 197.607 140.475 195.846 138.284C194.082 136.095 190.868 134.725 186.206 134.177L186.206 134.177Z" fill="black"/>
<path d="M247.854 139.516C245.117 138.913 242.559 138.815 240.184 139.222C237.807 139.63 235.054 140.418 231.928 141.59L230.425 148.413C229.765 151.408 229.011 154.655 228.163 158.149C227.316 161.647 226.479 165.088 225.657 168.473C224.833 171.859 224.058 174.674 223.332 176.917C222.856 178.363 222.434 179.492 222.063 180.301C221.69 181.111 221.289 181.7 220.859 182.071C220.429 182.441 219.924 182.621 219.345 182.609C218.765 182.598 218.032 182.495 217.144 182.299C216.257 182.104 215.548 181.889 215.018 181.656C214.487 181.424 214.083 181.063 213.802 180.575C213.521 180.087 213.36 179.412 213.318 178.549C213.275 177.687 213.335 176.537 213.497 175.099C213.641 173.735 213.904 171.931 214.282 169.689C214.659 167.446 215.1 165.004 215.604 162.362C216.109 159.721 216.64 157.047 217.198 154.338C217.754 151.631 218.287 149.132 218.792 146.839C219.623 143.067 220.354 140.011 220.986 137.668C221.618 135.327 222.286 133.264 222.989 131.48C224.117 128.472 225.139 126.644 226.06 125.992C226.977 125.342 228.065 125.154 229.323 125.431C231.17 125.838 232.443 126.662 233.14 127.901C233.837 129.14 234.035 130.967 233.736 133.382C236.992 131.618 240.347 130.381 243.8 129.667C247.252 128.955 250.644 128.965 253.971 129.698C257.15 130.398 259.89 131.778 262.191 133.835C264.489 135.893 266.123 138.772 267.092 142.474C267.686 144.699 267.978 147.072 267.967 149.587C267.954 152.105 267.767 154.721 267.402 157.431C267.214 158.631 267.032 159.811 266.855 160.974C266.674 162.138 266.461 163.37 266.214 164.671C265.965 165.974 265.663 167.439 265.304 169.065L264.034 174.833C263.512 177.201 262.986 179.411 262.456 181.465C261.926 183.519 261.328 185.268 260.662 186.71C259.994 188.154 259.161 189.211 258.16 189.881C257.158 190.553 255.955 190.732 254.552 190.423C251.15 189.674 249.732 187.657 250.302 184.37L250.925 181.542C251.291 179.877 251.701 177.932 252.152 175.705C252.603 173.479 253.064 171.216 253.533 168.915C253.999 166.615 254.359 164.716 254.612 163.22C254.798 162.022 254.987 160.725 255.177 159.331C255.369 157.94 255.524 156.521 255.65 155.075C255.774 153.63 255.831 152.227 255.822 150.867C255.81 149.509 255.697 148.262 255.482 147.129C254.984 144.46 254.033 142.622 252.626 141.614C251.22 140.606 249.629 139.907 247.854 139.516L247.854 139.516Z" fill="black"/>
<path d="M335.194 186.177C333.856 181.594 332.401 176.121 330.831 169.762C329.26 163.405 327.5 156.175 325.549 148.076C324.83 148.327 323.975 148.571 322.981 148.811L320.606 149.383C319.282 149.702 318.076 149.954 316.992 150.137C315.906 150.321 314.914 150.327 314.016 150.153C313.116 149.981 312.363 149.597 311.753 149.004C311.143 148.411 310.687 147.49 310.385 146.237C309.534 142.703 311.759 140.299 317.059 139.022L320.041 138.304C321.217 138.02 322.229 137.854 323.075 137.806C322.136 133.905 321.456 130.759 321.036 128.366C320.615 125.975 320.452 124.087 320.547 122.701C320.641 121.316 320.99 120.336 321.592 119.762C322.194 119.189 323.047 118.769 324.152 118.502C325.329 118.219 326.384 118.394 327.316 119.026C328.246 119.66 329.064 120.553 329.771 121.706C330.477 122.862 331.072 124.196 331.555 125.716C332.039 127.235 332.458 128.732 332.812 130.203C333.061 131.236 333.267 132.179 333.435 133.033C333.601 133.89 333.765 134.647 333.925 135.31C334.884 134.768 335.913 134.345 337.007 134.042C338.103 133.74 339.165 133.463 340.196 133.215C342.919 132.559 345.12 132.479 346.796 132.97C348.473 133.462 349.542 134.665 350.003 136.578C350.287 137.757 350.254 138.758 349.909 139.581C349.561 140.405 349.007 141.103 348.251 141.673C347.493 142.246 346.557 142.724 345.443 143.109C344.326 143.495 343.107 143.847 341.783 144.166L339.243 144.778C338.285 145.009 337.384 145.148 336.539 145.195L339.119 155.907C339.899 159.148 340.611 162.266 341.257 165.265C341.9 168.264 342.54 171.247 343.176 174.207C343.811 177.171 344.455 180.325 345.106 183.674C345.457 185.458 345.62 186.862 345.593 187.879C345.565 188.899 345.394 189.72 345.076 190.34C344.759 190.963 344.337 191.394 343.812 191.638C343.286 191.882 342.654 192.092 341.919 192.27C340.593 192.589 339.36 192.4 338.218 191.701C337.076 191.002 336.067 189.162 335.194 186.177L335.194 186.177Z" fill="black"/>
<path d="M410.546 178.682C409.339 178.79 408.358 178.668 407.606 178.318C406.851 177.969 406.255 177.47 405.818 176.825C405.379 176.18 405.043 175.394 404.808 174.463C404.572 173.535 404.369 172.546 404.2 171.495C402.524 174.003 400.267 176.182 397.43 178.032C394.592 179.883 390.872 181.014 386.272 181.426C383.331 181.689 380.294 181.522 377.162 180.931C374.03 180.338 371.122 179.076 368.441 177.149C365.76 175.223 363.465 172.52 361.557 169.041C359.649 165.563 358.449 161.071 357.956 155.565C357.571 151.265 357.736 147.185 358.456 143.318C359.174 139.453 360.482 136.008 362.377 132.988C364.274 129.967 366.769 127.483 369.865 125.532C372.958 123.584 376.692 122.412 381.067 122.02C384.914 121.676 388.407 122.066 391.55 123.192C394.691 124.318 397.61 126.356 400.308 129.306C400.227 128.401 400.182 127.476 400.174 126.525C400.163 125.575 400.295 124.689 400.563 123.867C400.831 123.044 401.32 122.355 402.032 121.797C402.741 121.239 403.737 120.903 405.02 120.788C406.151 120.686 407.248 121.044 408.31 121.861C409.37 122.68 410.111 124.59 410.533 127.593C411.118 131.571 411.607 135.137 412.004 138.295C412.401 141.453 412.752 144.728 413.056 148.123C413.427 152.272 413.729 156.084 413.965 159.56C414.2 163.037 414.342 166.749 414.392 170.697C414.396 172.446 414.312 173.84 414.14 174.882C413.966 175.924 413.714 176.707 413.381 177.23C413.046 177.756 412.622 178.114 412.11 178.315C411.594 178.511 411.072 178.635 410.546 178.682L410.546 178.682ZM401.864 150.493C401.513 146.572 400.64 143.418 399.249 141.034C397.856 138.65 396.211 136.84 394.315 135.602C392.418 134.367 390.427 133.576 388.343 133.229C386.26 132.885 384.35 132.788 382.616 132.943C379.9 133.186 377.625 133.886 375.79 135.038C373.954 136.19 372.508 137.669 371.455 139.474C370.398 141.279 369.692 143.357 369.333 145.708C368.973 148.06 368.915 150.593 369.158 153.307C369.752 159.945 371.642 164.717 374.83 167.625C378.017 170.533 382.1 171.763 387.078 171.317C390.019 171.054 392.481 170.32 394.466 169.116C396.448 167.913 398.021 166.386 399.187 164.531C400.349 162.68 401.146 160.536 401.576 158.103C402.003 155.669 402.1 153.135 401.864 150.493L401.864 150.493Z" fill="black"/>
<path d="M444.557 190.652C444.803 192.069 445.001 193.438 445.154 194.756C445.304 196.074 445.265 197.292 445.037 198.408C444.806 199.523 444.356 200.466 443.683 201.236C443.008 202.005 441.962 202.514 440.545 202.759C438.904 203.044 437.442 202.701 436.16 201.733C434.878 200.763 433.91 198.837 433.257 195.953C432.858 194.1 432.352 191.844 431.739 189.183C431.123 186.524 430.502 183.71 429.873 180.746C429.245 177.78 428.616 174.816 427.987 171.851C427.358 168.886 426.824 166.135 426.384 163.597C424.872 154.867 424.241 147.561 424.49 141.677C424.738 135.794 425.804 130.959 427.684 127.174C429.565 123.391 432.197 120.514 435.584 118.543C438.97 116.574 443.051 115.175 447.826 114.348C451.631 113.689 455.313 113.648 458.871 114.222C462.429 114.798 465.667 116.082 468.587 118.072C471.507 120.065 474.045 122.853 476.204 126.437C478.361 130.022 479.905 134.499 480.836 139.871C481.611 144.349 481.53 148.436 480.597 152.132C479.661 155.83 478.055 159.086 475.775 161.901C473.496 164.717 470.654 167.054 467.249 168.911C463.841 170.77 460.087 172.054 455.985 172.765C452.477 173.373 449.2 173.19 446.149 172.22C443.1 171.25 440.828 170.012 439.338 168.5C440.435 172.616 441.422 176.439 442.305 179.975C443.186 183.512 443.937 187.07 444.557 190.652L444.557 190.652ZM449.205 125.637C446.593 126.09 444.415 126.928 442.666 128.154C440.919 129.378 439.583 130.877 438.662 132.651C437.739 134.425 437.186 136.442 437.001 138.702C436.816 140.964 436.943 143.364 437.382 145.899C437.809 148.361 438.454 150.652 439.322 152.767C440.187 154.886 441.323 156.669 442.726 158.115C444.13 159.564 445.848 160.612 447.881 161.256C449.914 161.904 452.275 161.995 454.961 161.53C457.049 161.168 459.015 160.539 460.859 159.643C462.701 158.747 464.272 157.496 465.57 155.888C466.865 154.279 467.786 152.276 468.331 149.875C468.877 147.476 468.859 144.597 468.278 141.239C467.683 137.808 466.715 134.996 465.375 132.808C464.035 130.62 462.474 128.929 460.694 127.739C458.912 126.55 457.018 125.823 455.012 125.553C453.007 125.286 451.07 125.314 449.205 125.637L449.205 125.637Z" fill="black"/>
<path d="M503.468 176.449C502.51 173.959 501.521 170.892 500.5 167.244C499.476 163.599 498.292 159.174 496.944 153.968C495.616 148.838 494.56 144.69 493.782 141.528C493.002 138.368 492.482 135.529 492.223 133.015C491.811 129.914 491.877 127.825 492.418 126.745C492.96 125.666 493.853 124.966 495.101 124.643C495.98 124.415 496.786 124.286 497.522 124.251C498.256 124.218 498.96 124.367 499.633 124.702C500.306 125.036 500.903 125.604 501.425 126.409C501.945 127.212 502.405 128.383 502.804 129.923C502.88 130.216 502.992 130.502 503.142 130.775C503.218 131.068 503.315 131.374 503.439 131.695C503.56 132.015 503.679 132.395 503.793 132.834C505.127 129.831 506.83 127.121 508.904 124.706C510.977 122.292 513.626 120.667 516.853 119.832C521.176 118.712 523.806 119.949 524.736 123.541C525.077 124.86 525.086 126.031 524.764 127.053C524.442 128.075 523.858 128.989 523.011 129.795C522.163 130.602 521.135 131.318 519.929 131.942C518.722 132.568 517.387 133.228 515.923 133.918C513.69 134.966 511.705 136.36 509.967 138.1C508.226 139.842 507.227 141.725 506.969 143.745C507.33 145.139 507.612 146.16 507.822 146.81C508.029 147.461 508.207 148.002 508.359 148.431C508.509 148.862 508.651 149.335 508.783 149.847L509.409 152.266C510.377 156.005 511.211 159.525 511.909 162.824C512.606 166.124 513.376 169.7 514.217 173.549C514.598 175.327 514.748 176.737 514.665 177.775C514.583 178.812 514.369 179.652 514.024 180.286C513.681 180.924 513.23 181.372 512.673 181.634C512.113 181.896 511.542 182.103 510.956 182.255C508.903 182.786 507.409 182.683 506.476 181.948C505.541 181.212 504.539 179.38 503.468 176.449L503.468 176.449Z" fill="black"/>
<path d="M559.901 113.608C564.217 113.608 568.079 114.272 571.487 115.596C574.894 116.921 577.791 118.796 580.176 121.218C582.562 123.643 584.396 126.596 585.684 130.078C586.971 133.562 587.616 137.462 587.616 141.777C587.616 146.548 586.877 150.827 585.401 154.613C583.924 158.4 581.88 161.617 579.267 164.267C576.655 166.919 573.548 168.964 569.953 170.402C566.355 171.839 562.437 172.559 558.197 172.559C553.577 172.559 549.508 171.765 545.987 170.174C542.465 168.584 539.512 166.426 537.127 163.7C534.741 160.974 532.941 157.833 531.731 154.272C530.519 150.714 529.914 146.965 529.914 143.027C529.914 138.711 530.613 134.755 532.016 131.157C533.415 127.561 535.423 124.456 538.035 121.843C540.648 119.231 543.809 117.206 547.52 115.767C551.229 114.329 555.357 113.608 559.901 113.608V113.608ZM558.651 162.11C561.755 162.11 564.405 161.562 566.603 160.463C568.797 159.366 570.595 157.907 571.998 156.089C573.399 154.272 574.421 152.209 575.064 149.898C575.707 147.59 576.03 145.186 576.03 142.686C576.03 140.113 575.707 137.708 575.064 135.473C574.421 133.24 573.436 131.29 572.112 129.624C570.786 127.96 569.082 126.653 567 125.704C564.916 124.759 562.437 124.285 559.56 124.285C556.607 124.285 554.031 124.779 551.836 125.761C549.639 126.747 547.804 128.091 546.327 129.794C544.851 131.498 543.732 133.525 542.976 135.871C542.218 138.219 541.841 140.755 541.841 143.482C541.841 149.01 543.26 153.496 546.099 156.942C548.94 160.389 553.123 162.11 558.651 162.11V162.11Z" fill="black"/>
<path d="M630.098 124.075C634.307 125.026 637.929 126.524 640.961 128.566C643.992 130.61 646.405 133.077 648.198 135.965C649.991 138.856 651.129 142.14 651.619 145.821C652.107 149.503 651.876 153.449 650.926 157.658C649.875 162.312 648.211 166.322 645.937 169.69C643.662 173.059 640.959 175.747 637.827 177.756C634.694 179.767 631.213 181.077 627.39 181.688C623.564 182.297 619.583 182.136 615.447 181.202C610.941 180.184 607.147 178.512 604.063 176.185C600.977 173.858 598.573 171.102 596.847 167.918C595.12 164.733 594.057 161.273 593.661 157.533C593.263 153.796 593.498 150.006 594.366 146.164C595.317 141.954 596.87 138.249 599.031 135.049C601.189 131.849 603.831 129.263 606.955 127.29C610.079 125.317 613.608 124.039 617.546 123.452C621.48 122.867 625.665 123.074 630.098 124.075L630.098 124.075ZM618.193 171.11C621.22 171.793 623.926 171.842 626.312 171.255C628.694 170.669 630.769 169.641 632.538 168.177C634.304 166.714 635.756 164.926 636.893 162.814C638.028 160.704 638.873 158.43 639.424 155.991C639.991 153.482 640.205 151.065 640.071 148.743C639.935 146.424 639.404 144.304 638.48 142.387C637.553 140.472 636.179 138.821 634.357 137.438C632.533 136.057 630.219 135.048 627.412 134.414C624.532 133.763 621.911 133.678 619.553 134.153C617.193 134.629 615.107 135.536 613.291 136.872C611.476 138.209 609.938 139.94 608.683 142.062C607.427 144.185 606.5 146.576 605.9 149.235C604.682 154.628 605.078 159.316 607.088 163.303C609.099 167.291 612.8 169.891 618.193 171.11L618.193 171.11Z" fill="black"/>
<path d="M663.649 177.838C664.277 173.105 665.156 167.511 666.29 161.059C667.421 154.609 668.732 147.285 670.22 139.089C669.461 139.028 668.58 138.905 667.575 138.723L665.171 138.286C663.83 138.043 662.625 137.787 661.56 137.517C660.492 137.246 659.582 136.851 658.831 136.328C658.077 135.808 657.544 135.152 657.225 134.363C656.907 133.574 656.862 132.547 657.092 131.279C657.741 127.703 660.748 126.402 666.112 127.376L669.13 127.924C670.321 128.14 671.313 128.397 672.107 128.694C672.823 124.746 673.472 121.594 674.055 119.236C674.637 116.878 675.25 115.085 675.897 113.856C676.543 112.627 677.257 111.871 678.041 111.589C678.822 111.309 679.773 111.269 680.891 111.472C682.082 111.688 682.977 112.274 683.573 113.229C684.168 114.185 684.556 115.332 684.737 116.673C684.916 118.015 684.921 119.476 684.749 121.061C684.577 122.646 684.355 124.184 684.085 125.674C683.895 126.719 683.703 127.665 683.512 128.514C683.317 129.364 683.162 130.124 683.04 130.795C684.136 130.687 685.248 130.715 686.371 130.88C687.496 131.046 688.579 131.223 689.623 131.412C692.379 131.912 694.424 132.728 695.759 133.854C697.094 134.982 697.586 136.514 697.235 138.45C697.018 139.644 696.584 140.546 695.935 141.159C695.284 141.773 694.496 142.187 693.574 142.403C692.649 142.622 691.599 142.68 690.424 142.583C689.247 142.485 687.99 142.314 686.649 142.071L684.079 141.604C683.109 141.428 682.229 141.192 681.437 140.893L679.469 151.735C678.874 155.014 678.265 158.154 677.644 161.158C677.021 164.161 676.4 167.148 675.787 170.113C675.17 173.081 674.485 176.227 673.727 179.553C673.327 181.327 672.909 182.676 672.474 183.596C672.036 184.518 671.548 185.2 671.006 185.639C670.465 186.08 669.904 186.304 669.325 186.315C668.746 186.326 668.083 186.263 667.339 186.128C665.997 185.884 664.945 185.213 664.183 184.112C663.42 183.012 663.241 180.921 663.649 177.838L663.649 177.838Z" fill="black"/>
<path d="M718.722 152.032C720.159 150.643 722.104 149.046 724.558 147.24C727.01 145.436 729.524 143.531 732.095 141.527C734.666 139.525 737.027 137.438 739.175 135.269C741.322 133.101 742.825 130.923 743.68 128.736C745.085 125.14 744.922 121.966 743.191 119.217C741.461 116.467 738.337 114.211 733.825 112.447C731.497 111.538 729.524 111.071 727.908 111.049C726.289 111.027 724.875 111.266 723.663 111.769C722.449 112.27 721.4 112.878 720.513 113.587C719.626 114.297 718.77 114.978 717.945 115.633C717.121 116.286 716.236 116.732 715.288 116.971C714.341 117.211 713.267 117.097 712.068 116.629C710.305 115.94 709.278 115.031 708.989 113.9C708.698 112.771 708.843 111.466 709.421 109.985C710.634 106.881 712.927 104.445 716.303 102.673C717.337 102.102 718.582 101.572 720.034 101.083C721.484 100.594 723.126 100.239 724.961 100.02C726.794 99.8023 728.836 99.8268 731.09 100.098C733.341 100.368 735.807 101.027 738.488 102.074C746.174 105.078 751.404 109.277 754.176 114.667C756.947 120.061 757.01 126.14 754.364 132.911C753.455 135.239 752.191 137.428 750.577 139.481C748.962 141.533 747.142 143.484 745.119 145.336C743.095 147.187 740.961 148.955 738.718 150.639C736.475 152.323 734.268 153.961 732.103 155.554C729.012 157.843 726.546 159.523 724.707 160.591C722.865 161.661 721.169 161.891 719.619 161.285C718.207 160.734 717.174 159.946 716.52 158.916C715.863 157.889 715.744 156.845 716.157 155.787C716.405 155.152 716.702 154.496 717.049 153.818C717.393 153.141 717.951 152.546 718.722 152.032L718.722 152.032ZM714.527 170.881C716.149 171.515 717.401 172.736 718.28 174.543C719.159 176.35 719.254 178.136 718.565 179.899C717.904 181.591 716.625 182.78 714.733 183.462C712.84 184.144 711.011 184.142 709.249 183.453C707.768 182.875 706.616 181.712 705.794 179.969C704.97 178.226 704.918 176.437 705.635 174.602C706.296 172.909 707.519 171.701 709.308 170.976C711.093 170.253 712.835 170.22 714.527 170.881V170.881Z" fill="black"/>
</g>
<defs>
<clipPath id="clip0_141_1894">
<rect width="758" height="231" fill="white"/>
</clipPath>
</defs>
</svg>
