<svg width="221" height="231" viewBox="0 0 221 231" fill="none" xmlns="http://www.w3.org/2000/svg">
<g clip-path="url(#clip0_141_1872)">
<path d="M78.0107 149.193C83.2407 110.332 100.9 93.5598 120.789 87.4947C145.414 79.9856 159.459 81.9137 180.164 98.8914C223.856 134.718 215.994 209.599 162.956 225.772C109.918 241.946 72.7807 188.054 78.0107 149.193Z" fill="#C8E8F2"/>
<path d="M149.188 163.114C147.323 165.601 144.062 166.595 141.126 165.572V165.572C134.604 163.3 134.787 154.014 141.393 151.999V151.999C147.999 149.985 153.332 157.589 149.188 163.114V163.114Z" fill="#7B6C63"/>
<ellipse cx="112.443" cy="139.153" rx="10.1492" ry="13.1196" transform="rotate(-31.8897 112.443 139.153)" fill="#7B6C63"/>
<path d="M119.594 138.253C120.908 143.187 118.883 145.9 117.423 146.726C113.498 149.447 109.854 145.605 111.401 141.323C112.453 138.411 114.625 141.293 116.032 140.292C117.438 139.292 118.28 133.32 119.594 138.253Z" fill="white"/>
<ellipse rx="10.1492" ry="13.1196" transform="matrix(-0.999374 0.0353808 0.0353808 0.999374 157.903 125.292)" fill="#7B6C63"/>
<path d="M151.192 128.707C152.264 134.215 155.98 134.713 157.826 134.762C163.047 135.378 166.037 129.899 162.322 126.541C159.796 124.257 158.621 126.927 156.386 127.362C153.723 127.881 150.423 124.753 151.192 128.707Z" fill="white"/>
<path d="M120.09 155.512C117.921 162.363 113.114 174.517 119.514 174.565C127.438 174.624 121.874 161.364 120.09 155.512Z" fill="white"/>
<path d="M127.663 191.959C126.359 192.949 126.103 194.809 127.093 196.114C128.083 197.418 129.943 197.674 131.247 196.684L127.663 191.959ZM142.447 166.463C143.221 169.285 143.973 171.829 142.664 175.425C141.29 179.196 137.471 184.519 127.663 191.959L131.247 196.684C141.406 188.978 146.288 182.805 148.236 177.454C150.248 171.929 148.942 167.725 148.166 164.894L142.447 166.463Z" fill="#7B6C63"/>
<path d="M174.687 178.042C176.323 177.966 177.71 179.231 177.786 180.867C177.862 182.503 176.597 183.89 174.961 183.966L174.687 178.042ZM148.354 164.662C149.35 167.625 150.203 170.878 153.403 173.544C156.571 176.183 162.569 178.603 174.687 178.042L174.961 183.966C162.07 184.562 154.361 182.06 149.607 178.1C144.886 174.167 143.604 169.143 142.733 166.551L148.354 164.662Z" fill="#7B6C63"/>
<path d="M3.8985 70.8528C18.9954 36.7545 76.6369 78.9115 103.571 104.252L98.4479 116.923C60.6411 115.774 -11.1984 104.951 3.8985 70.8528Z" fill="#C8E8F2"/>
<path d="M20.8465 74.8012C27.6795 55.401 68.3853 80.6911 90.6007 97.7517C92.4381 99.1627 93.0581 101.628 92.1652 103.766C91.2949 105.849 89.1897 107.136 86.9444 106.895C59.9027 103.998 14.0129 94.2032 20.8465 74.8012Z" fill="#F1D0CC"/>
<path d="M209.796 8.06596C178.241 -11.8062 153.931 55.3413 145.72 91.399L157.041 99.055C187.774 77.0054 241.351 27.9382 209.796 8.06596Z" fill="#C8E8F2"/>
<path d="M197.935 20.7988C181.439 8.51244 161.772 52.213 152.856 78.7668C152.119 80.9629 152.98 83.3545 154.913 84.6303C156.798 85.8737 159.263 85.7666 160.992 84.3142C181.816 66.8204 214.432 33.0863 197.935 20.7988Z" fill="#F1D0CC"/>
</g>
<defs>
<clipPath id="clip0_141_1872">
<rect width="221" height="231" fill="white"/>
</clipPath>
</defs>
</svg>
